<svg version="1.1" id="Layer_1" xmlns="http://www.w3.org/2000/svg" xmlns:xlink="http://www.w3.org/1999/xlink" x="0px" y="0px"
	 viewBox="0 0 491.52 491.52" style="enable-background:new 0 0 491.52 491.52; cursor: pointer;" xml:space="preserve">
<circle style="fill:#FFFFFF;" cx="147.758" cy="336.881" r="113.879"/>
<circle style="fill:#D15241;" cx="147.758" cy="343.757" r="52.014"/>
<path style="fill:#E56353;" d="M289.166,317.391h-17.671c-3.261-15.373-9.35-29.681-17.638-42.435l12.536-12.538
	c2.48-2.479,2.48-6.501,0-8.98l-28.312-28.314c-2.48-2.48-6.501-2.48-8.98,0l-12.536,12.538
	c-12.755-8.289-27.064-14.376-42.438-17.638v-17.671c0-3.507-2.843-6.35-6.349-6.35h-40.042c-3.507,0-6.35,2.843-6.35,6.35v17.671
	c-15.374,3.262-29.679,9.349-42.434,17.638l-12.54-12.538c-2.48-2.48-6.501-2.48-8.981,0l-28.312,28.314
	c-2.48,2.479-2.48,6.501,0,8.98l12.538,12.538c-8.29,12.754-14.376,27.062-17.638,42.435H6.349c-3.506,0-6.349,2.844-6.349,6.35
	v40.041c0,3.507,2.843,6.35,6.349,6.35H24.02c3.262,15.373,9.348,29.68,17.638,42.435l-12.538,12.537c-2.48,2.481-2.48,6.501,0,8.98
	L57.432,462.4c2.48,2.479,6.501,2.479,8.981,0l12.54-12.538c12.755,8.289,27.06,14.376,42.434,17.637v17.672
	c0,3.507,2.843,6.35,6.35,6.35h40.042c3.506,0,6.349-2.843,6.349-6.35v-17.672c15.374-3.261,29.682-9.349,42.438-17.637
	l12.536,12.538c2.48,2.479,6.501,2.479,8.98,0l28.312-28.314c2.48-2.48,2.48-6.5,0-8.98l-12.536-12.537
	c8.288-12.755,14.375-27.062,17.638-42.435h17.671c3.507,0,6.349-2.844,6.349-6.35v-40.041
	C295.515,320.234,292.673,317.391,289.166,317.391z M147.758,439.758c-53.019,0-95.997-42.979-95.997-95.997
	c0-53.018,42.978-95.997,95.997-95.997c53.017,0,95.996,42.979,95.996,95.997C243.754,396.779,200.775,439.758,147.758,439.758z"/>
<path style="fill:#D15241;" d="M147.758,247.764c-53.019,0-95.997,42.979-95.997,95.997c0,53.017,42.978,95.997,95.997,95.997
	c53.017,0,95.996-42.979,95.996-95.997C243.754,290.744,200.775,247.764,147.758,247.764z M147.756,430.06
	c-47.66,0-86.298-38.637-86.298-86.299c0-47.661,38.638-86.298,86.298-86.298c47.663,0,86.301,38.637,86.301,86.298
	C234.057,391.423,195.419,430.06,147.756,430.06z"/>
<path style="fill:#EBF0F3;" d="M452.97,491.52c-108.743,0-217.486,0-326.23,0C256.697,336.353,6.308,163.416,126.741,0
	c108.743,0,217.487,0,326.23,0C332.532,163.413,582.934,336.356,452.97,491.52z"/>
<g>
	<rect x="137.774" y="48.087" style="fill:#D5D6DB;" width="252.467" height="14.633"/>
	<rect x="137.774" y="102.451" style="fill:#D5D6DB;" width="252.467" height="14.633"/>
	<rect x="146.079" y="156.861" style="fill:#D5D6DB;" width="252.467" height="14.633"/>
	<rect x="161.398" y="211.251" style="fill:#D5D6DB;" width="252.467" height="14.633"/>
	<rect x="166.011" y="265.636" style="fill:#D5D6DB;" width="252.467" height="14.633"/>
	<rect x="186.772" y="320.051" style="fill:#D5D6DB;" width="252.467" height="14.633"/>
	<rect x="205.056" y="374.426" style="fill:#D5D6DB;" width="252.467" height="14.633"/>
	<rect x="180.122" y="428.8" style="fill:#D5D6DB;" width="252.467" height="14.633"/>
</g>
<rect x="353.393" y="67.194" transform="matrix(-0.7071 -0.7071 0.7071 -0.7071 507.9601 527.587)" style="fill:#44C4A1;" width="19.707" height="182.795"/>
<rect x="367.297" y="81.116" transform="matrix(-0.7071 -0.7071 0.7071 -0.7071 521.8497 561.185)" style="fill:#3EA69B;" width="19.707" height="182.795"/>
<rect x="381.216" y="95.084" transform="matrix(-0.7071 -0.7071 0.7071 -0.7071 535.7344 594.8719)" style="fill:#31978C;" width="19.707" height="182.795"/>
<path style="fill:#64798A;" d="M278.184,277.589l22.781-8.054c-1.055-4.944-3.484-9.654-7.325-13.494
	c-3.841-3.841-8.551-6.269-13.494-7.325l-8.055,22.781C270.754,275.282,274.399,278.927,278.184,277.589z"/>
<path style="fill:#FCD462;" d="M291.625,216.25l-11.478,32.466c3.118,0.666,6.14,1.88,8.913,3.647l16.501-22.178L291.625,216.25z"/>
<path style="fill:#DC8744;" d="M333.431,258.056l-13.935-13.936l-22.179,16.501c1.768,2.773,2.982,5.796,3.648,8.914
	L333.431,258.056z"/>
<path style="fill:#F6C358;" d="M305.56,230.185l-16.501,22.178c1.624,1.036,3.163,2.259,4.581,3.677
	c1.418,1.418,2.642,2.956,3.677,4.58l22.179-16.501L305.56,230.185z"/>
<rect x="409.19" y="105.997" transform="matrix(-0.7071 -0.7071 0.7071 -0.7071 670.565 499.5868)" style="fill:#FCD462;" width="59.121" height="9.836"/>
<path style="fill:#E56353;" d="M461.032,130.455l-41.806-41.806l27.245-27.246c5.843-5.843,47.649,35.963,41.806,41.807
	L461.032,130.455z"/>
<g>
</g>
<g>
</g>
<g>
</g>
<g>
</g>
<g>
</g>
<g>
</g>
<g>
</g>
<g>
</g>
<g>
</g>
<g>
</g>
<g>
</g>
<g>
</g>
<g>
</g>
<g>
</g>
<g>
</g>
</svg>
